<svg width="118" height="119" viewBox="0 0 118 119" fill="none" xmlns="http://www.w3.org/2000/svg">
<rect y="0.5" width="118" height="118" rx="30" fill="#EDF1FC"/>
<g opacity="0.2">
<path d="M68.25 59.5C68.25 61.3295 67.7075 63.1179 66.6911 64.639C65.6747 66.1602 64.23 67.3458 62.5398 68.0459C60.8496 68.746 58.9897 68.9292 57.1954 68.5723C55.4011 68.2154 53.7529 67.3344 52.4593 66.0407C51.1656 64.7471 50.2846 63.0989 49.9277 61.3046C49.5708 59.5103 49.754 57.6504 50.4541 55.9602C51.1542 54.27 52.3398 52.8253 53.861 51.8089C55.3821 50.7925 57.1705 50.25 59 50.25C61.4533 50.25 63.806 51.2246 65.5407 52.9593C67.2754 54.694 68.25 57.0467 68.25 59.5ZM79.8125 41C80.3021 43.8886 81.6781 46.5535 83.7498 48.6252C85.8215 50.6969 88.4864 52.0729 91.375 52.5625V41H79.8125ZM79.8125 78H91.375V66.4375C88.4864 66.9271 85.8215 68.3031 83.7498 70.3748C81.6781 72.4465 80.3021 75.1114 79.8125 78ZM26.625 66.4375V78H38.1875C37.6979 75.1114 36.3219 72.4465 34.2502 70.3748C32.1785 68.3031 29.5136 66.9271 26.625 66.4375ZM26.625 52.5625C29.5136 52.0729 32.1785 50.6969 34.2502 48.6252C36.3219 46.5535 37.6979 43.8886 38.1875 41H26.625V52.5625Z" fill="#3E65C5"/>
<path d="M68.25 59.5C68.25 61.3295 67.7075 63.1179 66.6911 64.639C65.6747 66.1602 64.23 67.3458 62.5398 68.0459C60.8496 68.746 58.9897 68.9292 57.1954 68.5723C55.4011 68.2154 53.7529 67.3344 52.4593 66.0407C51.1656 64.7471 50.2846 63.0989 49.9277 61.3046C49.5708 59.5103 49.754 57.6504 50.4541 55.9602C51.1542 54.27 52.3398 52.8253 53.861 51.8089C55.3821 50.7925 57.1705 50.25 59 50.25C61.4533 50.25 63.806 51.2246 65.5407 52.9593C67.2754 54.694 68.25 57.0467 68.25 59.5ZM79.8125 41C80.3021 43.8886 81.6781 46.5535 83.7498 48.6252C85.8215 50.6969 88.4864 52.0729 91.375 52.5625V41H79.8125ZM79.8125 78H91.375V66.4375C88.4864 66.9271 85.8215 68.3031 83.7498 70.3748C81.6781 72.4465 80.3021 75.1114 79.8125 78ZM26.625 66.4375V78H38.1875C37.6979 75.1114 36.3219 72.4465 34.2502 70.3748C32.1785 68.3031 29.5136 66.9271 26.625 66.4375ZM26.625 52.5625C29.5136 52.0729 32.1785 50.6969 34.2502 48.6252C36.3219 46.5535 37.6979 43.8886 38.1875 41H26.625V52.5625Z" fill="black" fill-opacity="0.2"/>
</g>
<path d="M59 47.9375C56.7132 47.9375 54.4777 48.6156 52.5762 49.8861C50.6748 51.1566 49.1928 52.9625 48.3176 55.0752C47.4425 57.188 47.2135 59.5128 47.6597 61.7557C48.1058 63.9986 49.207 66.0589 50.8241 67.6759C52.4411 69.293 54.5014 70.3942 56.7443 70.8403C58.9872 71.2865 61.312 71.0575 63.4248 70.1824C65.5375 69.3072 67.3434 67.8252 68.6139 65.9238C69.8844 64.0223 70.5625 61.7868 70.5625 59.5C70.5625 56.4334 69.3443 53.4925 67.1759 51.3241C65.0075 49.1557 62.0666 47.9375 59 47.9375ZM59 66.4375C57.6279 66.4375 56.2866 66.0306 55.1457 65.2683C54.0049 64.506 53.1157 63.4225 52.5906 62.1549C52.0655 60.8872 51.9281 59.4923 52.1958 58.1466C52.4635 56.8008 53.1242 55.5647 54.0944 54.5944C55.0647 53.6242 56.3008 52.9635 57.6466 52.6958C58.9923 52.4281 60.3872 52.5655 61.6549 53.0906C62.9225 53.6157 64.006 54.5049 64.7683 55.6457C65.5306 56.7866 65.9375 58.1279 65.9375 59.5C65.9375 61.3399 65.2066 63.1045 63.9056 64.4056C62.6045 65.7066 60.8399 66.4375 59 66.4375ZM91.375 38.6875H26.625C26.0117 38.6875 25.4235 38.9311 24.9898 39.3648C24.5561 39.7985 24.3125 40.3867 24.3125 41V78C24.3125 78.6133 24.5561 79.2015 24.9898 79.6352C25.4235 80.0689 26.0117 80.3125 26.625 80.3125H91.375C91.9883 80.3125 92.5765 80.0689 93.0102 79.6352C93.4439 79.2015 93.6875 78.6133 93.6875 78V41C93.6875 40.3867 93.4439 39.7985 93.0102 39.3648C92.5765 38.9311 91.9883 38.6875 91.375 38.6875ZM28.9375 43.3125H35.1148C33.9221 46.0862 31.7112 48.2971 28.9375 49.4898V43.3125ZM28.9375 75.6875V69.5102C31.7112 70.7029 33.9221 72.9138 35.1148 75.6875H28.9375ZM89.0625 75.6875H82.8852C84.0779 72.9138 86.2888 70.7029 89.0625 69.5102V75.6875ZM89.0625 64.602C86.4367 65.3784 84.0468 66.7994 82.1106 68.7356C80.1744 70.6718 78.7534 73.0617 77.977 75.6875H40.023C39.2466 73.0617 37.8256 70.6718 35.8894 68.7356C33.9532 66.7994 31.5633 65.3784 28.9375 64.602V54.398C31.5633 53.6216 33.9532 52.2006 35.8894 50.2644C37.8256 48.3282 39.2466 45.9383 40.023 43.3125H77.977C78.7534 45.9383 80.1744 48.3282 82.1106 50.2644C84.0468 52.2006 86.4367 53.6216 89.0625 54.398V64.602ZM89.0625 49.4898C86.2888 48.2971 84.0779 46.0862 82.8852 43.3125H89.0625V49.4898Z" fill="#3E65C5"/>
<path d="M59 47.9375C56.7132 47.9375 54.4777 48.6156 52.5762 49.8861C50.6748 51.1566 49.1928 52.9625 48.3176 55.0752C47.4425 57.188 47.2135 59.5128 47.6597 61.7557C48.1058 63.9986 49.207 66.0589 50.8241 67.6759C52.4411 69.293 54.5014 70.3942 56.7443 70.8403C58.9872 71.2865 61.312 71.0575 63.4248 70.1824C65.5375 69.3072 67.3434 67.8252 68.6139 65.9238C69.8844 64.0223 70.5625 61.7868 70.5625 59.5C70.5625 56.4334 69.3443 53.4925 67.1759 51.3241C65.0075 49.1557 62.0666 47.9375 59 47.9375ZM59 66.4375C57.6279 66.4375 56.2866 66.0306 55.1457 65.2683C54.0049 64.506 53.1157 63.4225 52.5906 62.1549C52.0655 60.8872 51.9281 59.4923 52.1958 58.1466C52.4635 56.8008 53.1242 55.5647 54.0944 54.5944C55.0647 53.6242 56.3008 52.9635 57.6466 52.6958C58.9923 52.4281 60.3872 52.5655 61.6549 53.0906C62.9225 53.6157 64.006 54.5049 64.7683 55.6457C65.5306 56.7866 65.9375 58.1279 65.9375 59.5C65.9375 61.3399 65.2066 63.1045 63.9056 64.4056C62.6045 65.7066 60.8399 66.4375 59 66.4375ZM91.375 38.6875H26.625C26.0117 38.6875 25.4235 38.9311 24.9898 39.3648C24.5561 39.7985 24.3125 40.3867 24.3125 41V78C24.3125 78.6133 24.5561 79.2015 24.9898 79.6352C25.4235 80.0689 26.0117 80.3125 26.625 80.3125H91.375C91.9883 80.3125 92.5765 80.0689 93.0102 79.6352C93.4439 79.2015 93.6875 78.6133 93.6875 78V41C93.6875 40.3867 93.4439 39.7985 93.0102 39.3648C92.5765 38.9311 91.9883 38.6875 91.375 38.6875ZM28.9375 43.3125H35.1148C33.9221 46.0862 31.7112 48.2971 28.9375 49.4898V43.3125ZM28.9375 75.6875V69.5102C31.7112 70.7029 33.9221 72.9138 35.1148 75.6875H28.9375ZM89.0625 75.6875H82.8852C84.0779 72.9138 86.2888 70.7029 89.0625 69.5102V75.6875ZM89.0625 64.602C86.4367 65.3784 84.0468 66.7994 82.1106 68.7356C80.1744 70.6718 78.7534 73.0617 77.977 75.6875H40.023C39.2466 73.0617 37.8256 70.6718 35.8894 68.7356C33.9532 66.7994 31.5633 65.3784 28.9375 64.602V54.398C31.5633 53.6216 33.9532 52.2006 35.8894 50.2644C37.8256 48.3282 39.2466 45.9383 40.023 43.3125H77.977C78.7534 45.9383 80.1744 48.3282 82.1106 50.2644C84.0468 52.2006 86.4367 53.6216 89.0625 54.398V64.602ZM89.0625 49.4898C86.2888 48.2971 84.0779 46.0862 82.8852 43.3125H89.0625V49.4898Z" fill="black" fill-opacity="0.2"/>
</svg>
