<svg width="119" height="121" viewBox="0 0 119 121" fill="none" xmlns="http://www.w3.org/2000/svg">
<rect width="119" height="121" rx="30" fill="#EDF1FC"/>
<g opacity="0.2">
<path d="M87.625 39.4062V49.3848C86.3208 48.2949 84.8139 47.4738 83.1911 46.9686C81.5682 46.4634 79.8615 46.2841 78.1692 46.441C76.4768 46.598 74.8322 47.088 73.3299 47.883C71.8277 48.678 70.4975 49.7622 69.4159 51.0733C68.3342 52.3844 67.5226 53.8964 67.0276 55.5223C66.5326 57.1483 66.364 58.8561 66.5316 60.5474C66.6991 62.2388 67.1995 63.8803 68.0039 65.3775C68.8084 66.8748 69.9009 68.1981 71.2188 69.2715V79.25H33.7188C33.0971 79.25 32.501 79.0031 32.0615 78.5635C31.6219 78.124 31.375 77.5279 31.375 76.9062V39.4062C31.375 38.7846 31.6219 38.1885 32.0615 37.749C32.501 37.3094 33.0971 37.0625 33.7188 37.0625H85.2812C85.9029 37.0625 86.499 37.3094 86.9385 37.749C87.3781 38.1885 87.625 38.7846 87.625 39.4062Z" fill="#3E65C5"/>
<path d="M87.625 39.4062V49.3848C86.3208 48.2949 84.8139 47.4738 83.1911 46.9686C81.5682 46.4634 79.8615 46.2841 78.1692 46.441C76.4768 46.598 74.8322 47.088 73.3299 47.883C71.8277 48.678 70.4975 49.7622 69.4159 51.0733C68.3342 52.3844 67.5226 53.8964 67.0276 55.5223C66.5326 57.1483 66.364 58.8561 66.5316 60.5474C66.6991 62.2388 67.1995 63.8803 68.0039 65.3775C68.8084 66.8748 69.9009 68.1981 71.2188 69.2715V79.25H33.7188C33.0971 79.25 32.501 79.0031 32.0615 78.5635C31.6219 78.124 31.375 77.5279 31.375 76.9062V39.4062C31.375 38.7846 31.6219 38.1885 32.0615 37.749C32.501 37.3094 33.0971 37.0625 33.7188 37.0625H85.2812C85.9029 37.0625 86.499 37.3094 86.9385 37.749C87.3781 38.1885 87.625 38.7846 87.625 39.4062Z" fill="black" fill-opacity="0.2"/>
</g>
<path d="M59.5 62.8438C59.5 63.4654 59.2531 64.0615 58.8135 64.501C58.374 64.9406 57.7779 65.1875 57.1562 65.1875H43.0938C42.4721 65.1875 41.876 64.9406 41.4365 64.501C40.9969 64.0615 40.75 63.4654 40.75 62.8438C40.75 62.2221 40.9969 61.626 41.4365 61.1865C41.876 60.7469 42.4721 60.5 43.0938 60.5H57.1562C57.7779 60.5 58.374 60.7469 58.8135 61.1865C59.2531 61.626 59.5 62.2221 59.5 62.8438ZM57.1562 51.125H43.0938C42.4721 51.125 41.876 51.3719 41.4365 51.8115C40.9969 52.251 40.75 52.8471 40.75 53.4688C40.75 54.0904 40.9969 54.6865 41.4365 55.126C41.876 55.5656 42.4721 55.8125 43.0938 55.8125H57.1562C57.7779 55.8125 58.374 55.5656 58.8135 55.126C59.2531 54.6865 59.5 54.0904 59.5 53.4688C59.5 52.8471 59.2531 52.251 58.8135 51.8115C58.374 51.3719 57.7779 51.125 57.1562 51.125ZM89.9688 70.3057V88.625C89.9725 89.0382 89.8669 89.445 89.6627 89.8043C89.4585 90.1635 89.163 90.4624 88.806 90.6706C88.4491 90.8788 88.0435 90.9889 87.6303 90.9898C87.2171 90.9907 86.811 90.8824 86.4531 90.6758L79.4219 86.6504L72.3906 90.6758C72.0328 90.8824 71.6267 90.9907 71.2135 90.9898C70.8003 90.9889 70.3946 90.8788 70.0377 90.6706C69.6808 90.4624 69.3852 90.1635 69.1811 89.8043C68.9769 89.445 68.8713 89.0382 68.875 88.625V81.5938H33.7188C32.4755 81.5938 31.2833 81.0999 30.4042 80.2208C29.5251 79.3417 29.0312 78.1495 29.0312 76.9062V39.4062C29.0312 38.163 29.5251 36.9708 30.4042 36.0917C31.2833 35.2126 32.4755 34.7188 33.7188 34.7188H85.2812C86.5245 34.7188 87.7167 35.2126 88.5958 36.0917C89.4749 36.9708 89.9688 38.163 89.9688 39.4062V48.3506C91.4503 49.7694 92.6294 51.4734 93.4349 53.36C94.2403 55.2466 94.6556 57.2768 94.6556 59.3281C94.6556 61.3795 94.2403 63.4096 93.4349 65.2962C92.6294 67.1828 91.4503 68.8869 89.9688 70.3057ZM68.875 76.9062V70.3057C66.3209 67.8425 64.7068 64.565 64.3111 61.0388C63.9154 57.5126 64.763 53.9589 66.7077 50.9909C68.6523 48.0229 71.572 45.8268 74.9628 44.7816C78.3537 43.7364 82.0031 43.9075 85.2812 45.2656V39.4062H33.7188V76.9062H68.875ZM85.2812 73.3906C83.4251 74.1661 81.4335 74.5654 79.4219 74.5654C77.4103 74.5654 75.4186 74.1661 73.5625 73.3906V84.5879L78.25 81.9043C78.6042 81.7018 79.0051 81.5953 79.4131 81.5953C79.8211 81.5953 80.222 81.7018 80.5762 81.9043L85.2637 84.5879L85.2812 73.3906ZM89.9688 59.3281C89.9688 57.2421 89.3502 55.203 88.1913 53.4686C87.0324 51.7342 85.3852 50.3823 83.458 49.5841C81.5308 48.7858 79.4102 48.577 77.3643 48.9839C75.3184 49.3909 73.4391 50.3954 71.9641 51.8704C70.4891 53.3454 69.4846 55.2246 69.0777 57.2705C68.6707 59.3164 68.8796 61.437 69.6778 63.3642C70.4761 65.2914 71.8279 66.9386 73.5623 68.0975C75.2968 69.2564 77.3359 69.875 79.4219 69.875C80.8069 69.875 82.1784 69.6022 83.458 69.0722C84.7376 68.5421 85.9003 67.7653 86.8796 66.7859C87.859 65.8065 88.6359 64.6438 89.1659 63.3642C89.6959 62.0846 89.9688 60.7132 89.9688 59.3281Z" fill="#3E65C5"/>
<path d="M59.5 62.8438C59.5 63.4654 59.2531 64.0615 58.8135 64.501C58.374 64.9406 57.7779 65.1875 57.1562 65.1875H43.0938C42.4721 65.1875 41.876 64.9406 41.4365 64.501C40.9969 64.0615 40.75 63.4654 40.75 62.8438C40.75 62.2221 40.9969 61.626 41.4365 61.1865C41.876 60.7469 42.4721 60.5 43.0938 60.5H57.1562C57.7779 60.5 58.374 60.7469 58.8135 61.1865C59.2531 61.626 59.5 62.2221 59.5 62.8438ZM57.1562 51.125H43.0938C42.4721 51.125 41.876 51.3719 41.4365 51.8115C40.9969 52.251 40.75 52.8471 40.75 53.4688C40.75 54.0904 40.9969 54.6865 41.4365 55.126C41.876 55.5656 42.4721 55.8125 43.0938 55.8125H57.1562C57.7779 55.8125 58.374 55.5656 58.8135 55.126C59.2531 54.6865 59.5 54.0904 59.5 53.4688C59.5 52.8471 59.2531 52.251 58.8135 51.8115C58.374 51.3719 57.7779 51.125 57.1562 51.125ZM89.9688 70.3057V88.625C89.9725 89.0382 89.8669 89.445 89.6627 89.8043C89.4585 90.1635 89.163 90.4624 88.806 90.6706C88.4491 90.8788 88.0435 90.9889 87.6303 90.9898C87.2171 90.9907 86.811 90.8824 86.4531 90.6758L79.4219 86.6504L72.3906 90.6758C72.0328 90.8824 71.6267 90.9907 71.2135 90.9898C70.8003 90.9889 70.3946 90.8788 70.0377 90.6706C69.6808 90.4624 69.3852 90.1635 69.1811 89.8043C68.9769 89.445 68.8713 89.0382 68.875 88.625V81.5938H33.7188C32.4755 81.5938 31.2833 81.0999 30.4042 80.2208C29.5251 79.3417 29.0312 78.1495 29.0312 76.9062V39.4062C29.0312 38.163 29.5251 36.9708 30.4042 36.0917C31.2833 35.2126 32.4755 34.7188 33.7188 34.7188H85.2812C86.5245 34.7188 87.7167 35.2126 88.5958 36.0917C89.4749 36.9708 89.9688 38.163 89.9688 39.4062V48.3506C91.4503 49.7694 92.6294 51.4734 93.4349 53.36C94.2403 55.2466 94.6556 57.2768 94.6556 59.3281C94.6556 61.3795 94.2403 63.4096 93.4349 65.2962C92.6294 67.1828 91.4503 68.8869 89.9688 70.3057ZM68.875 76.9062V70.3057C66.3209 67.8425 64.7068 64.565 64.3111 61.0388C63.9154 57.5126 64.763 53.9589 66.7077 50.9909C68.6523 48.0229 71.572 45.8268 74.9628 44.7816C78.3537 43.7364 82.0031 43.9075 85.2812 45.2656V39.4062H33.7188V76.9062H68.875ZM85.2812 73.3906C83.4251 74.1661 81.4335 74.5654 79.4219 74.5654C77.4103 74.5654 75.4186 74.1661 73.5625 73.3906V84.5879L78.25 81.9043C78.6042 81.7018 79.0051 81.5953 79.4131 81.5953C79.8211 81.5953 80.222 81.7018 80.5762 81.9043L85.2637 84.5879L85.2812 73.3906ZM89.9688 59.3281C89.9688 57.2421 89.3502 55.203 88.1913 53.4686C87.0324 51.7342 85.3852 50.3823 83.458 49.5841C81.5308 48.7858 79.4102 48.577 77.3643 48.9839C75.3184 49.3909 73.4391 50.3954 71.9641 51.8704C70.4891 53.3454 69.4846 55.2246 69.0777 57.2705C68.6707 59.3164 68.8796 61.437 69.6778 63.3642C70.4761 65.2914 71.8279 66.9386 73.5623 68.0975C75.2968 69.2564 77.3359 69.875 79.4219 69.875C80.8069 69.875 82.1784 69.6022 83.458 69.0722C84.7376 68.5421 85.9003 67.7653 86.8796 66.7859C87.859 65.8065 88.6359 64.6438 89.1659 63.3642C89.6959 62.0846 89.9688 60.7132 89.9688 59.3281Z" fill="black" fill-opacity="0.2"/>
</svg>
