<svg width="119" height="120" viewBox="0 0 119 120" fill="none" xmlns="http://www.w3.org/2000/svg">
<rect y="0.5" width="119" height="119" rx="30" fill="#EDF1FC"/>
<g opacity="0.2">
<path d="M87.625 60C87.625 65.5626 85.9755 71.0003 82.8851 75.6254C79.7947 80.2505 75.4022 83.8554 70.263 85.9841C65.1238 88.1128 59.4688 88.6698 54.0131 87.5846C48.5574 86.4994 43.546 83.8207 39.6126 79.8874C35.6793 75.954 33.0006 70.9426 31.9154 65.4869C30.8302 60.0312 31.3872 54.3762 33.5159 49.237C35.6446 44.0979 39.2495 39.7053 43.8746 36.6149C48.4997 33.5245 53.9374 31.875 59.5 31.875C66.9592 31.875 74.1129 34.8382 79.3874 40.1126C84.6618 45.3871 87.625 52.5408 87.625 60Z" fill="#3E65C5"/>
<path d="M87.625 60C87.625 65.5626 85.9755 71.0003 82.8851 75.6254C79.7947 80.2505 75.4022 83.8554 70.263 85.9841C65.1238 88.1128 59.4688 88.6698 54.0131 87.5846C48.5574 86.4994 43.546 83.8207 39.6126 79.8874C35.6793 75.954 33.0006 70.9426 31.9154 65.4869C30.8302 60.0312 31.3872 54.3762 33.5159 49.237C35.6446 44.0979 39.2495 39.7053 43.8746 36.6149C48.4997 33.5245 53.9374 31.875 59.5 31.875C66.9592 31.875 74.1129 34.8382 79.3874 40.1126C84.6618 45.3871 87.625 52.5408 87.625 60Z" fill="black" fill-opacity="0.2"/>
</g>
<path d="M89.9688 62.537C89.4709 68.326 87.3299 73.8524 83.7979 78.4659C80.2658 83.0794 75.4895 86.5882 70.031 88.5795C64.5725 90.5707 58.6589 90.9616 52.9858 89.7061C47.3127 88.4506 42.1162 85.6009 38.0076 81.4924C33.8991 77.3838 31.0494 72.1873 29.7939 66.5142C28.5384 60.8411 28.9292 54.9274 30.9205 49.4689C32.9117 44.0104 36.4205 39.2342 41.0341 35.7021C45.6476 32.1701 51.174 30.0291 56.963 29.5312C57.2708 29.5058 57.5805 29.5412 57.8746 29.6356C58.1687 29.7299 58.4413 29.8812 58.6769 30.0809C58.9125 30.2806 59.1064 30.5247 59.2477 30.7994C59.3889 31.074 59.4747 31.3738 59.5001 31.6815C59.5255 31.9893 59.49 32.2991 59.3957 32.5932C59.3013 32.8873 59.15 33.1599 58.9503 33.3955C58.7507 33.6311 58.5065 33.825 58.2319 33.9663C57.9573 34.1075 57.6575 34.1933 57.3497 34.2187C52.45 34.6396 47.7726 36.4513 43.8676 39.4404C39.9626 42.4296 36.9926 46.4719 35.3071 51.0917C33.6215 55.7115 33.2906 60.7166 34.3531 65.5182C35.4156 70.3197 37.8274 74.7179 41.3047 78.1952C44.7821 81.6726 49.1803 84.0844 53.9818 85.1469C58.7834 86.2094 63.7885 85.8784 68.4083 84.1929C73.0281 82.5073 77.0704 79.5374 80.0596 75.6324C83.0487 71.7274 84.8604 67.0499 85.2813 62.1503C85.3326 61.5287 85.6287 60.9529 86.1045 60.5496C86.5803 60.1464 87.1968 59.9486 87.8184 59.9999C88.44 60.0512 89.0158 60.3473 89.4191 60.8231C89.8224 61.2989 90.0201 61.9154 89.9688 62.537ZM57.1563 43.5937V59.9999C57.1563 60.6215 57.4033 61.2176 57.8428 61.6572C58.2823 62.0967 58.8785 62.3437 59.5001 62.3437H75.9063C76.5279 62.3437 77.1241 62.0967 77.5636 61.6572C78.0032 61.2176 78.2501 60.6215 78.2501 59.9999C78.2501 59.3783 78.0032 58.7822 77.5636 58.3426C77.1241 57.9031 76.5279 57.6562 75.9063 57.6562H61.8438V43.5937C61.8438 42.9721 61.5969 42.3759 61.1574 41.9364C60.7178 41.4968 60.1217 41.2499 59.5001 41.2499C58.8785 41.2499 58.2823 41.4968 57.8428 41.9364C57.4033 42.3759 57.1563 42.9721 57.1563 43.5937ZM68.8751 36.5624C69.5704 36.5624 70.2501 36.3562 70.8283 35.9699C71.4064 35.5836 71.857 35.0345 72.1231 34.3922C72.3892 33.7498 72.4588 33.0429 72.3232 32.3609C72.1875 31.679 71.8527 31.0525 71.361 30.5609C70.8693 30.0692 70.2429 29.7344 69.561 29.5987C68.879 29.4631 68.1721 29.5327 67.5297 29.7988C66.8873 30.0649 66.3383 30.5155 65.952 31.0936C65.5657 31.6717 65.3595 32.3515 65.3595 33.0468C65.3595 33.9792 65.7299 34.8734 66.3892 35.5327C67.0485 36.192 67.9427 36.5624 68.8751 36.5624ZM79.422 43.5937C80.1173 43.5937 80.797 43.3875 81.3751 43.0012C81.9533 42.6149 82.4039 42.0658 82.67 41.4234C82.9361 40.781 83.0057 40.0741 82.87 39.3922C82.7344 38.7102 82.3996 38.0838 81.9079 37.5921C81.4162 37.1004 80.7898 36.7656 80.1078 36.63C79.4259 36.4943 78.719 36.5639 78.0766 36.83C77.4342 37.0961 76.8851 37.5467 76.4988 38.1249C76.1125 38.703 75.9063 39.3827 75.9063 40.078C75.9063 41.0104 76.2767 41.9046 76.936 42.564C77.5953 43.2233 78.4896 43.5937 79.422 43.5937ZM86.4532 54.1405C87.1485 54.1405 87.8282 53.9343 88.4064 53.548C88.9845 53.1617 89.4351 52.6127 89.7012 51.9703C89.9673 51.3279 90.0369 50.621 89.9013 49.939C89.7656 49.2571 89.4308 48.6306 88.9391 48.139C88.4475 47.6473 87.821 47.3125 87.1391 47.1768C86.4571 47.0412 85.7502 47.1108 85.1078 47.3769C84.4654 47.643 83.9164 48.0936 83.5301 48.6717C83.1438 49.2499 82.9376 49.9296 82.9376 50.6249C82.9376 51.5573 83.308 52.4515 83.9673 53.1108C84.6266 53.7701 85.5208 54.1405 86.4532 54.1405Z" fill="#3E65C5"/>
<path d="M89.9688 62.537C89.4709 68.326 87.3299 73.8524 83.7979 78.4659C80.2658 83.0794 75.4895 86.5882 70.031 88.5795C64.5725 90.5707 58.6589 90.9616 52.9858 89.7061C47.3127 88.4506 42.1162 85.6009 38.0076 81.4924C33.8991 77.3838 31.0494 72.1873 29.7939 66.5142C28.5384 60.8411 28.9292 54.9274 30.9205 49.4689C32.9117 44.0104 36.4205 39.2342 41.0341 35.7021C45.6476 32.1701 51.174 30.0291 56.963 29.5312C57.2708 29.5058 57.5805 29.5412 57.8746 29.6356C58.1687 29.7299 58.4413 29.8812 58.6769 30.0809C58.9125 30.2806 59.1064 30.5247 59.2477 30.7994C59.3889 31.074 59.4747 31.3738 59.5001 31.6815C59.5255 31.9893 59.49 32.2991 59.3957 32.5932C59.3013 32.8873 59.15 33.1599 58.9503 33.3955C58.7507 33.6311 58.5065 33.825 58.2319 33.9663C57.9573 34.1075 57.6575 34.1933 57.3497 34.2187C52.45 34.6396 47.7726 36.4513 43.8676 39.4404C39.9626 42.4296 36.9926 46.4719 35.3071 51.0917C33.6215 55.7115 33.2906 60.7166 34.3531 65.5182C35.4156 70.3197 37.8274 74.7179 41.3047 78.1952C44.7821 81.6726 49.1803 84.0844 53.9818 85.1469C58.7834 86.2094 63.7885 85.8784 68.4083 84.1929C73.0281 82.5073 77.0704 79.5374 80.0596 75.6324C83.0487 71.7274 84.8604 67.0499 85.2813 62.1503C85.3326 61.5287 85.6287 60.9529 86.1045 60.5496C86.5803 60.1464 87.1968 59.9486 87.8184 59.9999C88.44 60.0512 89.0158 60.3473 89.4191 60.8231C89.8224 61.2989 90.0201 61.9154 89.9688 62.537ZM57.1563 43.5937V59.9999C57.1563 60.6215 57.4033 61.2176 57.8428 61.6572C58.2823 62.0967 58.8785 62.3437 59.5001 62.3437H75.9063C76.5279 62.3437 77.1241 62.0967 77.5636 61.6572C78.0032 61.2176 78.2501 60.6215 78.2501 59.9999C78.2501 59.3783 78.0032 58.7822 77.5636 58.3426C77.1241 57.9031 76.5279 57.6562 75.9063 57.6562H61.8438V43.5937C61.8438 42.9721 61.5969 42.3759 61.1574 41.9364C60.7178 41.4968 60.1217 41.2499 59.5001 41.2499C58.8785 41.2499 58.2823 41.4968 57.8428 41.9364C57.4033 42.3759 57.1563 42.9721 57.1563 43.5937ZM68.8751 36.5624C69.5704 36.5624 70.2501 36.3562 70.8283 35.9699C71.4064 35.5836 71.857 35.0345 72.1231 34.3922C72.3892 33.7498 72.4588 33.0429 72.3232 32.3609C72.1875 31.679 71.8527 31.0525 71.361 30.5609C70.8693 30.0692 70.2429 29.7344 69.561 29.5987C68.879 29.4631 68.1721 29.5327 67.5297 29.7988C66.8873 30.0649 66.3383 30.5155 65.952 31.0936C65.5657 31.6717 65.3595 32.3515 65.3595 33.0468C65.3595 33.9792 65.7299 34.8734 66.3892 35.5327C67.0485 36.192 67.9427 36.5624 68.8751 36.5624ZM79.422 43.5937C80.1173 43.5937 80.797 43.3875 81.3751 43.0012C81.9533 42.6149 82.4039 42.0658 82.67 41.4234C82.9361 40.781 83.0057 40.0741 82.87 39.3922C82.7344 38.7102 82.3996 38.0838 81.9079 37.5921C81.4162 37.1004 80.7898 36.7656 80.1078 36.63C79.4259 36.4943 78.719 36.5639 78.0766 36.83C77.4342 37.0961 76.8851 37.5467 76.4988 38.1249C76.1125 38.703 75.9063 39.3827 75.9063 40.078C75.9063 41.0104 76.2767 41.9046 76.936 42.564C77.5953 43.2233 78.4896 43.5937 79.422 43.5937ZM86.4532 54.1405C87.1485 54.1405 87.8282 53.9343 88.4064 53.548C88.9845 53.1617 89.4351 52.6127 89.7012 51.9703C89.9673 51.3279 90.0369 50.621 89.9013 49.939C89.7656 49.2571 89.4308 48.6306 88.9391 48.139C88.4475 47.6473 87.821 47.3125 87.1391 47.1768C86.4571 47.0412 85.7502 47.1108 85.1078 47.3769C84.4654 47.643 83.9164 48.0936 83.5301 48.6717C83.1438 49.2499 82.9376 49.9296 82.9376 50.6249C82.9376 51.5573 83.308 52.4515 83.9673 53.1108C84.6266 53.7701 85.5208 54.1405 86.4532 54.1405Z" fill="black" fill-opacity="0.2"/>
</svg>
